<mxfile host="app.diagrams.net" modified="2023-09-06T06:35:27.203Z" agent="Mozilla/5.0 (Windows NT 10.0; Win64; x64) AppleWebKit/537.36 (KHTML, like Gecko) Chrome/116.0.0.0 Safari/537.36" version="21.7.2" etag="ecCklToAF0X-EsajfVKP" type="github">
  <diagram name="Trang-1" id="e-vxa0w9Nfs1oAnb7YJJ">
    <mxGraphModel>
      <root>
        <mxCell id="0" />
        <mxCell id="1" parent="0" />
      </root>
    </mxGraphModel>
  </diagram>
</mxfile>
